<?xml version="1.0" standalone="no"?>
<!DOCTYPE svg PUBLIC "-//W3C//DTD SVG 20010904//EN"
 "http://www.w3.org/TR/2001/REC-SVG-20010904/DTD/svg10.dtd">
<svg version="1.0" xmlns="http://www.w3.org/2000/svg"
 width="507.000000pt" height="583.000000pt" viewBox="0 0 507.000000 583.000000"
 preserveAspectRatio="xMidYMid meet">

<g transform="translate(0.000000,583.000000) scale(0.100000,-0.100000)"
fill="#000000" stroke="none">
<path d="M2667 5183 l-627 -628 1005 -1005 c553 -553 1005 -1010 1005 -1015 0
-6 -340 -350 -755 -765 l-755 -755 -760 760 c-418 418 -760 764 -760 770 0 6
113 123 250 260 l250 250 508 -508 507 -507 250 250 250 250 -753 753 -752
752 -755 -755 -755 -755 1258 -1258 1257 -1257 1260 1260 1260 1260 -1008
1008 c-554 554 -1007 1012 -1007 1017 0 6 169 179 375 385 l375 375 -242 242
c-134 134 -245 243 -248 243 -3 0 -287 -282 -633 -627z"/>
</g>
</svg>
